<?xml version="1.0" encoding="iso-8859-1"?>
<!-- Uploaded to: SVG Repo, www.svgrepo.com, Generator: SVG Repo Mixer Tools -->
<!DOCTYPE svg PUBLIC "-//W3C//DTD SVG 1.1//EN" "http://www.w3.org/Graphics/SVG/1.1/DTD/svg11.dtd">
<svg fill="#000000" height="800px" width="800px" version="1.1" id="Capa_1" xmlns="http://www.w3.org/2000/svg" xmlns:xlink="http://www.w3.org/1999/xlink" 
	 viewBox="0 0 201.657 201.657" xml:space="preserve">
<path d="M100.829,201.657c-42.862,0-70.558-23.117-70.558-58.894c0-27.458,16.277-69.422,42.575-89.337
	c0.037-0.028,0.075-0.056,0.113-0.082c1.942-1.34,5.835-4.612,8.253-8.417h-0.509c-1.657,0-3-1.343-3-3s1.343-3,3-3h2.604
	c0.002-0.208-0.003-0.415-0.019-0.621c-0.861-11.655-8.897-25.862-9.486-26.89l-4.42-6.778c-0.602-0.922-0.649-2.1-0.125-3.067
	S70.794,0,71.896,0h57.866c1.101,0,2.113,0.603,2.638,1.571c0.524,0.968,0.477,2.146-0.125,3.067L125.126,15.6
	c-3.21,5.235-6.985,14.626-7.582,22.707c-0.016,0.206-0.022,0.413-0.022,0.621h3.432c1.657,0,3,1.343,3,3s-1.343,3-3,3h-1.508
	c1.396,2.277,3.373,4.294,5.321,5.682c27.89,17.846,46.619,62.04,46.619,92.154C171.386,178.54,143.691,201.657,100.829,201.657z
	 M76.419,58.247C52.4,76.475,36.271,116.648,36.271,142.764c0,38.998,33.349,52.894,64.558,52.894s64.558-13.896,64.558-52.894
	c0-27.96-18.032-70.623-43.909-87.136c-0.039-0.025-0.078-0.052-0.116-0.079c-3.273-2.312-6.827-6.096-8.635-10.621h-6.141
	l5.364,14.293c0.582,1.551-0.203,3.28-1.755,3.862c-1.547,0.584-3.279-0.203-3.862-1.755l-6.155-16.4h-1.485L93.185,56.82
	c-0.696,1.505-2.477,2.158-3.983,1.462c-1.503-0.696-2.158-2.479-1.461-3.983l4.34-9.371h-4.109
	C84.851,52.213,77.291,57.64,76.419,58.247z M106.937,38.928h4.584c0-0.353,0.013-0.707,0.039-1.063
	c0.672-9.079,4.875-19.568,8.496-25.472L124.224,6H77.434l1.439,2.208c0.027,0.041,0.053,0.084,0.078,0.127
	c0.381,0.651,9.331,16.122,10.321,29.529c0.026,0.356,0.038,0.711,0.035,1.063h3.124l-5.364-14.293
	c-0.583-1.551,0.203-3.28,1.754-3.862c1.551-0.583,3.281,0.204,3.863,1.755l6.156,16.4h1.484l4.717-10.188
	c0.697-1.502,2.479-2.155,3.983-1.462c1.503,0.696,2.158,2.479,1.462,3.983L106.937,38.928z M100.829,172.29c-1.657,0-3-1.343-3-3
	v-7.508H75.343c-1.657,0-3-1.343-3-3s1.343-3,3-3h22.486v-24.466h-7.255c-10.052,0-18.23-8.178-18.23-18.23
	c0-10.059,8.178-18.236,18.23-18.236h7.255v-5.863c0-1.657,1.343-3,3-3c1.657,0,3,1.343,3,3v5.863h22.486c1.657,0,3,1.343,3,3
	s-1.343,3-3,3h-22.486v24.467h7.253c10.054,0,18.233,8.179,18.233,18.232s-8.18,18.233-18.233,18.233h-7.253v7.508
	C103.829,170.947,102.486,172.29,100.829,172.29z M103.829,155.782h7.253c6.745,0,12.233-5.488,12.233-12.233
	s-5.488-12.232-12.233-12.232h-7.253V155.782z M90.573,100.85c-6.744,0-12.23,5.486-12.23,12.23c0,6.75,5.486,12.236,12.23,12.236
	h7.255V100.85H90.573z"/>
</svg>